<?xml version="1.0" encoding="utf-8"?>
<!-- Generator: Adobe Illustrator 23.0.1, SVG Export Plug-In . SVG Version: 6.00 Build 0)  -->
<svg version="1.1" id="Layer_1" xmlns="http://www.w3.org/2000/svg" xmlns:xlink="http://www.w3.org/1999/xlink" x="0px" y="0px"
	 viewBox="0 0 68.32 68.6" style="enable-background:new 0 0 68.32 68.6;" xml:space="preserve">
<style type="text/css">
	.st0{fill:none;stroke:#808080;stroke-width:0.25;stroke-miterlimit:10;}
	.st1{fill:#255271;}
	.st2{clip-path:url(#SVGID_2_);}
	.st3{clip-path:url(#SVGID_4_);fill:#255271;}
	.st4{clip-path:url(#SVGID_6_);}
	.st5{clip-path:url(#SVGID_8_);fill:#255271;}
	.st6{clip-path:url(#SVGID_10_);}
	.st7{clip-path:url(#SVGID_12_);fill:#255271;}
	.st8{clip-path:url(#SVGID_14_);}
	.st9{clip-path:url(#SVGID_16_);fill:#255271;}
	.st10{clip-path:url(#SVGID_18_);fill:#255271;}
	.st11{clip-path:url(#SVGID_18_);fill:#464241;}
	.st12{clip-path:url(#SVGID_20_);}
	.st13{clip-path:url(#SVGID_22_);fill:#255271;}
	.st14{clip-path:url(#SVGID_24_);}
	.st15{fill:#464241;}
	.st16{clip-path:url(#SVGID_26_);}
	.st17{clip-path:url(#SVGID_28_);fill:#464241;}
	.st18{clip-path:url(#SVGID_28_);fill:#255271;}
	.st19{clip-path:url(#SVGID_30_);}
	.st20{clip-path:url(#SVGID_32_);}
	.st21{clip-path:url(#SVGID_34_);}
	.st22{clip-path:url(#SVGID_36_);}
	.st23{clip-path:url(#SVGID_38_);}
	.st24{clip-path:url(#SVGID_40_);}
	.st25{fill:none;}
	.st26{clip-path:url(#SVGID_42_);}
	.st27{fill:#8A867E;}
	.st28{clip-path:url(#SVGID_44_);}
	.st29{clip-path:url(#SVGID_46_);}
	.st30{fill:#FFFFFF;}
	.st31{clip-path:url(#SVGID_48_);}
	.st32{clip-path:url(#SVGID_50_);fill:#464241;}
	.st33{clip-path:url(#SVGID_50_);fill:#255271;}
	.st34{clip-path:url(#SVGID_52_);}
	.st35{clip-path:url(#SVGID_54_);fill:#CCCCCC;}
	.st36{clip-path:url(#SVGID_54_);}
	.st37{clip-path:url(#SVGID_56_);}
	.st38{fill:#808080;}
	.st39{clip-path:url(#SVGID_58_);fill:#CCCCCC;}
	.st40{clip-path:url(#SVGID_58_);}
	.st41{clip-path:url(#SVGID_60_);}
	.st42{fill:#DF9F6F;}
	.st43{clip-path:url(#SVGID_62_);fill:#CCCCCC;}
	.st44{clip-path:url(#SVGID_62_);}
	.st45{fill:none;stroke:#808080;stroke-width:0.5;stroke-miterlimit:10;}
	.st46{clip-path:url(#SVGID_64_);fill:#8A867E;}
	.st47{clip-path:url(#SVGID_66_);}
	.st48{clip-path:url(#SVGID_70_);}
	.st49{clip-path:url(#SVGID_72_);fill:#8A867E;}
	.st50{clip-path:url(#SVGID_72_);fill:#FFFFFF;}
	.st51{clip-path:url(#SVGID_74_);}
	.st52{clip-path:url(#SVGID_76_);}
	.st53{clip-path:url(#SVGID_78_);}
	.st54{clip-path:url(#SVGID_80_);fill:#8A867E;}
	.st55{clip-path:url(#SVGID_82_);}
	.st56{clip-path:url(#SVGID_84_);}
	.st57{clip-path:url(#SVGID_88_);}
	.st58{clip-path:url(#SVGID_90_);}
</style>
<g>
	<defs>
		<path id="SVGID_67_" d="M56.75,64.82H11.94c-4.56,0-8.26-3.7-8.26-8.26V11.74c0-4.56,3.7-8.26,8.26-8.26h44.81
			c4.56,0,8.26,3.7,8.26,8.26v44.81C65.02,61.12,61.32,64.82,56.75,64.82z"/>
	</defs>
	<clipPath id="SVGID_2_">
		<use xlink:href="#SVGID_67_"  style="overflow:visible;"/>
	</clipPath>
</g>
<g>
	<defs>
		<path id="SVGID_73_" d="M45.44,65.03H11.74c-4.56,0-8.26-3.7-8.26-8.26V11.95c0-4.56,3.7-8.26,8.26-8.26h2.44L45.44,65.03z"/>
	</defs>
	<clipPath id="SVGID_4_">
		<use xlink:href="#SVGID_73_"  style="overflow:visible;"/>
	</clipPath>
	<g style="clip-path:url(#SVGID_4_);">
		<path class="st27" d="M17.26,42.99C17.26,42.99,17.26,42.99,17.26,42.99C17.26,42.97,17.26,42.97,17.26,42.99z"/>
		<g>
			<path class="st27" d="M44.72,96.34c-0.35-1.03-0.69-2.12-0.72-3.19c-0.09-2.75,0.01-5.5-0.03-8.26c-0.01-0.51-0.38-1-0.43-1.52
				c-0.1-1-0.25-2.04-0.1-3.02c0.23-1.53,0.9-3,1.01-4.53c0.16-2.19,0.28-4.39-1.05-6.46c-0.86-1.34-1.17-3.03-1.78-4.54
				c-0.17-0.43-0.43-0.93-0.8-1.15c-2.11-1.3-4.2-2.6-6.89-2.39c-0.71,0.06-1.52-0.57-2.21-1c-1.99-1.23-3.94-2.52-6.1-3.91
				c0.02-0.45-0.24-1.49,0.16-1.96c0.95-1.1,0.98-2.29,1.02-3.57c0.01-0.36,0.21-0.73,0.41-1.05c0.38-0.62,1.03-1.15,1.2-1.81
				c0.36-1.37,0.5-2.8,0.69-4.21c0.04-0.31,0.02-0.73-0.16-0.94c-1.03-1.21-0.61-2.63-0.28-3.81c0.28-0.98,0.05-1.4-0.56-1.95
				c-1.06-0.96-2.05-2.01-3.18-2.88c-0.67-0.52-1.52-1.02-2.33-1.09c-1.91-0.16-3.85-0.12-5.77-0.01c-0.73,0.04-1.56,0.37-2.13,0.83
				c-1.23,0.99-2.37,2.12-3.44,3.28c-0.36,0.39-0.59,1.07-0.55,1.6c0.08,1.15,0.37,2.29,0.58,3.48c-1.16,0.36-1.36,1.1-1.13,2.06
				c0.15,0.59,0.21,1.21,0.41,1.78c0.42,1.21,0.68,2.6,1.46,3.52c0.43,0.5,0.67,0.86,0.72,1.46c0.06,0.74,0.07,1.5,0.25,2.21
				c0.29,1.14,0.7,2.24,0.96,3.04c-1.92,1.23-3.54,2.22-5.12,3.29c-1.37,0.93-2.59,1.95-4.49,1.75c-2.19-0.22-4.07,1-5.59,2.32
				c-1.02,0.89-1.46,2.49-2.04,3.83c-0.48,1.1-0.69,2.32-1.2,3.4c-0.99,2.1-0.51,4.22-0.26,6.33c0.18,1.54,0.58,3.06,0.87,4.59
				c0.03,0.15-0.01,0.31-0.04,0.47c-0.14,0.87-0.39,1.73-0.4,2.6c-0.05,3.03-0.01,6.06-0.03,9.08c0,0.39-0.12,0.81-0.31,1.15
				c-0.94,1.79-1.79,3.63-1.95,5.65c-0.08,1.02,0.45,2.08,0.59,3.13c0.23,1.72,0.36,3.46,0.53,5.19c0.02,0.16,0.01,0.33,0.07,0.46
				c0.72,1.6,0.3,3.2,0.14,4.84c-0.21,2.06-0.49,4.23-0.04,6.2c0.49,2.15,0.53,4.2,0.01,6.23c-0.72,2.83,0.36,6.21,2.81,7.81
				c0.39,0.26,0.87,0.39,1.33,0.54c0.65,0.21,1.31,0.4,1.97,0.57c0.67,0.17,1.64,0.65,1.98,0.37c0.79-0.64,1.63-1.39,1.34-2.78
				c-0.24-1.16-0.05-2.4-0.05-3.61c0.12-0.01,0.25-0.02,0.37-0.02c0.21,0.49,0.55,0.97,0.61,1.47c0.22,2.09,0.27,4.19,0.55,6.27
				c0.31,2.27,0.79,4.51,1.24,6.76c0.13,0.66,0.37,1.3,0.58,1.94c0.48,1.44,1.06,2.85,1.45,4.32c0.36,1.35,0.61,2.74,0.77,4.12
				c0.2,1.76,0.51,3.57,0.32,5.3c-0.32,2.87-1.17,5.67-1.49,8.54c-0.34,3.02,0.06,6.03,0.88,8.98c0.29,1.03,0.48,2.09,0.71,3.14
				c0.31,1.46,0.58,2.92,0.91,4.38c0.2,0.86,0.53,1.69,0.71,2.55c0.23,1.05,0.3,2.14,0.58,3.18c0.25,0.95,0.74,1.83,1.02,2.78
				c0.24,0.79,0.63,1.72,0.41,2.41c-0.29,0.9-1.08,1.67-1.73,2.43c-0.63,0.74-1.37,1.38-2.04,2.09c-0.97,1.01-0.93,1.62,0.14,2.54
				c6.45,0,12.9,0,19.35,0c0.73-0.55,1.04-1.84,0.48-2.4c-1.39-1.38-3.06-2.5-3.83-4.41c-0.15-0.37-0.43-0.81-0.35-1.14
				c0.31-1.25,0.77-2.47,1.14-3.7c0.54-1.77,1.12-3.52,1.55-5.32c0.48-1.96,0.83-3.95,1.22-5.93c0.2-1.01,0.36-2.04,0.54-3.06
				c0.32-1.77,0.87-3.53,0.9-5.3c0.04-2.48-0.31-4.97-0.49-7.45c-0.01-0.08-0.02-0.16-0.04-0.23c-0.31-1.45-0.74-2.89-0.92-4.36
				c-0.37-2.99,0.17-5.92,0.97-8.79c0.47-1.67,1.05-3.31,1.55-4.97c0.3-1,0.57-2.02,0.81-3.04c0.21-0.9,0.38-1.8,0.53-2.71
				c0.38-2.22,0.81-4.44,1.07-6.68c0.16-1.32,0.03-2.67,0.03-4.28c1.54,1.59,1.12,3.28,0.85,4.7c-0.23,1.21,0.64,1.51,1.06,2.12
				c0.22,0.32,1.12,0.25,1.7,0.2c0.5-0.05,0.98-0.32,1.45-0.52c0.84-0.35,1.82-0.54,2.48-1.11c1.77-1.52,3.15-3.33,2.84-5.88
				c-0.11-0.91-0.42-1.81-0.42-2.72c0-2-0.13-3.98,0.32-6.01c0.36-1.64-0.31-3.48-0.29-5.22c0.04-2.68,0.27-5.35,0.43-8.03
				c0-0.08-0.01-0.18,0.03-0.23c1.18-1.46,0.59-3.3,1.01-4.95C46.5,99.73,45.29,98.05,44.72,96.34z M12.92,46.82
				c-0.06-0.22-0.06-0.47-0.05-0.7c0.06-1.16-0.24-2.04-1.73-2.03c0.03-0.1,0.07-0.2,0.1-0.3c0.35-0.07,0.7-0.13,1.19-0.22
				c0.14-0.88,0.2-1.81,0.46-2.69c0.11-0.39,0.57-0.88,0.94-0.95c1.62-0.31,3.28-0.4,4.9-0.72c1.67-0.33,3.32-0.82,4.93-1.23
				c0.85,1.26,1.89,2.62,2.69,4.11c0.45,0.83,0.68,1.69,1.85,1.86c-0.17,0.07-0.37,0.1-0.49,0.22c-0.39,0.4-0.89,0.77-1.09,1.26
				c-0.37,0.92-0.64,1.9-0.81,2.88c-0.2,1.15-0.38,2.33-0.34,3.49c0.04,1.24-0.7,1.82-1.53,2.42c-0.22,0.15-0.48,0.27-0.64,0.46
				c-1.56,1.85-3.68,1.18-5.6,1.14c-0.66-0.01-1.28-0.79-1.96-1.14c-1.51-0.79-1.68-2.1-1.78-3.64
				C13.87,49.61,13.28,48.22,12.92,46.82z M4.34,114.72c-0.78,2.57-0.46,5.16-0.1,7.75c0.14,1,0.14,2.02,0.21,3.04
				c-0.62-0.93-1.12-1.75-1.68-2.53c-0.61-0.85-1.31-1.64-1.87-2.52c-0.18-0.28-0.15-0.79-0.05-1.15c0.65-2.18,1.37-4.35,2-6.53
				c0.28-0.95,0.38-1.94,0.6-2.91c0.23-1.04,0.64-2.05,0.73-3.1c0.13-1.53,0.16-3.08,0.03-4.61c-0.14-1.63-0.66-3.24-0.72-4.87
				c-0.04-1.18,0.48-2.37,0.62-3.57c0.23-1.93,0.35-3.88,0.51-5.82c0.03-0.32,0.06-0.63,0.1-1.11c0.87,1.91,1.66,3.61,2.41,5.33
				c0.12,0.27,0.07,0.62,0.07,0.93c0,2.48,0.12,4.96-0.05,7.43c-0.09,1.28-0.74,2.51-1.07,3.78c-0.25,0.95-0.48,1.91-0.59,2.88
				c-0.19,1.74-0.23,3.5-0.45,5.24C4.95,113.17,4.58,113.94,4.34,114.72z M20.44,189.95c-0.1,1.5-0.45,2.98-0.69,4.46
				c-0.99-5.85-1.11-11.72-0.12-17.6c0.1,0.03,0.22,0.05,0.23,0.08C20.67,181.21,20.72,185.58,20.44,189.95z M19.76,162.44
				c0.86,2.38,0.87,5.21-0.07,8.44C19.26,167.87,18.38,165.12,19.76,162.44z M34.91,125.52c0.18-1.69,0.39-3.14,0.48-4.59
				c0.12-1.95,0.71-3.92-0.23-5.86c-0.34-0.7-0.31-1.58-0.56-2.34c-0.64-1.99-0.84-4.02-0.7-6.1c0.11-1.64-0.61-3-1.41-4.34
				c-0.19-0.31-0.22-0.74-0.23-1.11c-0.02-2.12,0.04-4.25-0.03-6.37c-0.06-1.58,0.1-3.04,1-4.42c0.45-0.68,0.56-1.58,0.92-2.67
				c0.26,0.5,0.49,0.79,0.54,1.1c0.11,0.62,0.09,1.26,0.2,1.87c0.34,1.92,0.77,3.83,1.05,5.76c0.11,0.73-0.1,1.51-0.18,2.26
				c-0.02,0.15-0.15,0.28-0.16,0.43c-0.21,2.16-0.56,4.32-0.56,6.49c0,1.3,0.55,2.6,0.85,3.9c0.22,0.94,0.4,1.89,0.69,2.81
				c0.54,1.71,1.32,3.36,1.67,5.1c0.28,1.4,1.19,2.93-0.51,4.32C36.65,122.63,36,124.02,34.91,125.52z M44.98,101.89
				c-0.3,1.59-0.66,3.17-0.9,4.76c-0.37,2.45-0.96,4.88-0.68,7.41c0.23,2.05,0.67,4.2,0.29,6.16c-0.37,1.92-0.29,3.78-0.31,5.67
				c-0.01,1.19,0.33,2.38,0.42,3.58c0.13,1.92-1.29,3.12-2.28,4.49c-0.24,0.33-0.97,0.29-1.47,0.44c-0.68,0.19-1.35,0.4-2.21,0.66
				c0.94-1.71,1.78-3.26,2.77-5.07c-0.49,0.23-0.97,0.3-1.12,0.56c-0.44,0.74-0.72,1.57-1.12,2.34c-0.38,0.73-0.84,1.43-1.27,2.14
				c-0.12,0-0.24,0.01-0.36,0.01c-0.03-0.45-0.08-0.91-0.07-1.36c0-1.38-0.01-2.75,0.06-4.13c0.06-1.24,0.23-2.47,0.37-3.83
				c-0.27,0.19-0.47,0.33-0.79,0.56c0-0.33-0.1-0.64,0.02-0.8c0.66-0.93,1.27-1.93,2.08-2.71c1.6-1.54,1.61-3.28,1.02-5.21
				c-0.53-1.72-1-3.47-1.55-5.19c-0.31-0.98-0.77-1.91-1.03-2.9c-0.28-1.03-0.49-2.09-0.56-3.15c-0.09-1.37-0.14-2.76,0.01-4.12
				c0.15-1.35,0.6-2.67,0.88-4c0.09-0.41,0.14-0.86,0.07-1.28c-0.13-0.82-0.33-1.62-0.55-2.42c-1.03-3.83-1.08-7.75-0.91-11.66
				c0.09-2.16,0.26-4.31,1.42-6.31c1.08-1.86,0.75-3.85-0.3-5.71c-0.33-0.58-0.07-1.54-1.44-1.67c0.26,1.14,0.31,2.26,0.76,3.18
				c0.81,1.66,0,3.08-0.37,4.58c-0.06,0.24-0.19,0.46-0.31,0.69c-0.24,0.46-0.38,1.08-0.76,1.33c-0.26,0.17-0.85-0.2-1.3-0.26
				c-0.23-0.03-0.55,0.03-0.71,0.18c-1.63,1.59-3.65,1.89-5.79,1.86c-0.45-0.01-0.91,0.11-1.35,0.38c1.51,0.31,3.03,0.59,4.49,0.06
				c0.79-0.29,1.43-1.02,2.23-1.25c0.75-0.22,1.61-0.05,2.77-0.05c-0.39,1.89-0.59,3.74-1.17,5.46c-0.78,2.31-1.86,4.51-2.78,6.77
				c-0.11,0.28-0.09,0.62-0.09,0.93c0.03,2.79,0.15,5.59,0.05,8.37c-0.03,0.94-0.62,1.85-0.92,2.79c-0.11,0.33-0.14,0.69-0.05,1.06
				c1.2-1.61,1.2-1.61,2.29-1.48c0.27,2.7,0.48,5.48,0.85,8.23c0.15,1.12,0.67,2.19,1,3.3c0.08,0.26,0.09,0.54,0.08,0.81
				c-0.16,4.54-0.23,9.08-0.53,13.61c-0.22,3.26-0.64,6.52-1.17,9.75c-0.28,1.73-0.98,3.39-1.48,5.09c-0.2,0.69-0.37,1.38-0.58,2.07
				c-0.52,1.68-1.04,3.36-1.57,5.05c-0.01,0.04-0.03,0.07-0.04,0.11c-0.25,2.57-0.66,5.14-0.68,7.71c-0.01,1.39,0.65,2.79,1.01,4.18
				c0.03,0.11,0.05,0.23,0.05,0.35c0.18,2.88,0.49,5.77,0.47,8.65c-0.01,1.57-0.55,3.15-0.86,4.72c-0.25,1.31-0.49,2.62-0.77,3.93
				c-0.26,1.18-0.57,2.35-0.85,3.53c-0.28,1.19-0.5,2.38-0.81,3.56c-0.42,1.61-0.89,3.22-1.36,4.82c-0.22,0.77-0.59,1.51-0.69,2.29
				c-0.06,0.4,0.29,0.87,0.49,1.3c0.04,0.08,0.28,0.09,0.29,0.15c0.33,2.14,2.28,2.92,3.55,4.27c0.04,0.04,0.02,0.15,0.03,0.35
				c-2.69,0-5.37,0-8.21,0c0-1.52-0.06-3.08,0.02-4.62c0.1-2.09-0.04-4.28,0.57-6.22c0.83-2.62,0.57-5.2,0.51-7.78
				c-0.05-2.03-0.85-4.04-0.97-6.07c-0.13-2.14,0.14-4.31,0.25-6.47c0.02-0.47,0.03-0.94,0.11-1.41c0.13-0.79,0.3-1.57,0.46-2.36
				c0.04-0.19,0.12-0.4,0.08-0.58c-0.28-1.25-0.6-2.49-0.87-3.74c-0.09-0.41-0.13-0.85-0.14-1.27c-0.02-10.15-0.01-20.3-0.06-30.44
				c-0.01-2.07-0.26-4.15-0.4-6.31c1.85-0.66,2.8-1.91,2.61-4.05c-0.16-1.77,0.42-3.36,1.67-4.72c0.97-1.06,1.78-2.27,2.57-3.66
				c-0.32,0.13-0.74,0.16-0.94,0.39c-0.88,1.02-1.69,2.11-2.54,3.16c-1.24,1.54-1.46,3.34-1.37,5.23c0.06,1.18-0.33,2.07-1.53,2.62
				c-1.41,0.64-3.22-0.35-3.34-1.89c-0.1-1.31-0.12-2.68-0.55-3.89c-0.43-1.2-1.3-2.26-2.02-3.35c-0.39-0.59-0.84-1.15-1.31-1.68
				c-0.25-0.28-0.59-0.47-0.89-0.7c-0.08,0.09-0.16,0.18-0.23,0.27c0.6,0.88,1.02,1.98,1.82,2.59c1.98,1.5,2.31,3.67,2.42,5.77
				c0.08,1.68,0.63,2.78,1.94,3.68c0.26,0.18,0.51,0.57,0.51,0.86c-0.04,11.76-0.08,23.52-0.22,35.28
				c-0.02,1.58-0.62,3.14-0.87,4.73c-0.12,0.73-0.19,1.52-0.03,2.22c0.65,2.85,1.16,5.71,0.88,8.63c-0.15,1.55-0.6,3.07-0.9,4.61
				c-0.06,0.31-0.05,0.63-0.05,0.94c-0.01,1.89-0.07,3.78,0.01,5.66c0.1,2.33,0.13,4.7,0.56,6.98c0.26,1.41,0.62,2.68,0,4.05
				c-0.09,0.2,0.07,0.52,0.12,0.78c0.18,0.88,0.36,1.76,0.57,2.79c-3.04,0-5.77,0-8.82,0c0.54-0.55,0.86-0.94,1.25-1.26
				c1.09-0.89,2.37-1.61,2.55-3.23c0.02-0.2,0.4-0.33,0.52-0.54c0.17-0.32,0.44-0.74,0.36-1.02c-0.64-2.12-1.37-4.21-2.03-6.33
				c-0.25-0.8-0.34-1.64-0.54-2.45c-0.36-1.49-0.77-2.97-1.11-4.46c-0.22-0.96-0.35-1.95-0.55-2.92c-0.36-1.82-0.75-3.64-1.11-5.47
				c-0.05-0.27-0.07-0.55-0.05-0.82c0.16-3.19,0.25-6.39,0.52-9.57c0.1-1.2,0.82-2.34,0.95-3.54c0.16-1.54,0.04-3.12-0.01-4.67
				c-0.01-0.45-0.2-0.89-0.29-1.33c-0.27-1.34-0.5-2.68-0.82-4.01c-0.23-0.96-0.55-1.9-0.86-2.83c-0.5-1.52-1.08-3.02-1.51-4.56
				c-0.36-1.29-0.61-2.62-0.8-3.95c-0.35-2.49-0.65-4.99-0.91-7.49c-0.11-1.01-0.06-2.04-0.13-3.06c-0.2-2.96-0.47-5.91-0.6-8.88
				c-0.09-1.92-0.05-3.82,0.58-5.73c0.47-1.43,0.55-3.04,0.57-4.57c0.03-1.67,0.15-3.28,1.08-4.71c0.18-0.27,0.49-0.46,0.71-0.65
				c0.45,0.77,0.77,1.32,1.1,1.87c0.14-0.05,0.28-0.11,0.42-0.16c-0.09-0.36-0.07-0.78-0.27-1.05c-0.85-1.14-1.3-2.2-1.07-3.8
				c0.36-2.47,0.23-5.02,0.12-7.54c-0.04-0.89-0.62-1.76-0.96-2.64c-0.58-1.51-1.02-3.1-1.79-4.51c-1.02-1.86-1.01-3.79-0.95-5.85
				c1.28-0.06,2.4-0.19,3.44,0.83c0.53,0.52,1.56,0.64,2.39,0.73c1.11,0.12,2.24,0.03,3.36,0.03c0.03-0.14,0.05-0.29,0.08-0.43
				c-0.38-0.09-0.77-0.27-1.15-0.25c-2.27,0.11-4.37-0.22-6.08-1.93c-0.17-0.17-0.69-0.05-1.04,0.03c-0.3,0.06-0.57,0.24-1.03,0.45
				c-0.6-1.77-1.49-3.35-1.58-4.99c-0.1-1.64,0.6-3.33,0.95-4.99c-0.11-0.07-0.23-0.15-0.34-0.22c-0.29,0.28-0.71,0.5-0.85,0.84
				c-0.41,0.99-0.75,2.02-1.04,3.05c-0.4,1.43,0.15,2.72,0.75,3.98c0.51,1.06,1.05,2.04,1,3.33c-0.05,1.38,0.41,2.78,0.38,4.17
				c-0.05,2.77-0.22,5.55-0.47,8.31c-0.1,1.12-0.63,2.2-0.8,3.32c-0.14,0.91-0.03,1.85-0.03,2.77c0,0.07,0.08,0.14,0.08,0.22
				c0.19,2.38,1.2,4.69,0.76,7.13c-0.18,1-0.55,1.97-0.82,2.95c-0.51,1.83-1.01,3.66-1.52,5.49c-0.38,1.38-0.59,2.85-1.22,4.11
				c-0.86,1.71,0.24,2.66,1.04,3.77c0.78,1.1,1.64,2.14,2.38,3.26c0.18,0.28,0.08,0.75,0.11,1.13c-0.1,0.01-0.19,0.02-0.29,0.03
				c-0.13-0.39-0.26-0.77-0.39-1.16c-0.1,0.01-0.2,0.02-0.3,0.03c0.15,3.04,0.3,6.08,0.45,9.12c-0.12,0.03-0.24,0.06-0.36,0.09
				c-1.47-1.37-1.35-3.88-3.48-4.82c0.84,1.59,1.68,3.19,2.59,4.92c-2.14-0.77-4.31-1.1-5.41-3.44c-0.9-1.92-0.61-3.76-0.26-5.68
				c0.29-1.58,0.85-3.18-0.18-4.73c-0.14-0.21-0.12-0.53-0.12-0.8c-0.01-2.12-0.03-4.25,0.02-6.37c0.02-0.64,0.44-1.3,0.38-1.92
				c-0.18-1.79-0.51-3.56-0.78-5.34c-0.01-0.08-0.06-0.15-0.06-0.23c-0.19-2.16-0.66-4.36-0.47-6.49c0.15-1.62,1.14-3.17,1.76-4.76
				c0.11-0.27,0.31-0.54,0.31-0.81c-0.03-1.93-0.12-3.85-0.14-5.78c-0.03-2.01-0.01-4.03-0.01-6.04c0.11,0,0.22,0,0.34,0
				c0.31,0.32,0.61,0.63,0.92,0.95c0.1-0.08,0.2-0.15,0.3-0.23c-0.33-0.65-0.71-1.28-0.96-1.96c-0.22-0.6-0.31-1.25-0.43-1.88
				c-0.35-1.86-0.82-3.71-0.98-5.58c-0.08-0.93,0.39-1.92,0.66-2.87c0.23-0.8,0.37-1.68,0.83-2.34c1.05-1.49,0.93-3.7,2.74-4.67
				c1.3-0.7,2.55-1.53,4.14-1.58c1.99-0.07,3.98-0.41,5.97-0.44c0.89-0.01,1.78,0.48,2.68,0.69c0.78,0.18,1.57,0.3,2.36,0.4
				c0.11,0.01,0.25-0.22,0.5-0.46c-2.51-0.59-4.87-1.13-7.25-1.69c1.43-0.87,2.96-1.83,4.51-2.73c0.55-0.32,1.43,0.23,1.53,0.91
				c0.05,0.37,0.05,0.75,0.21,1.11c0.88-0.91-0.09-1.72-0.17-2.57c-0.09-0.96-0.02-1.94-0.02-3.09c2.14,0.84,2.2,2.91,3.01,4.45
				c0.12-0.03,0.23-0.07,0.35-0.1c-0.17-0.82-0.34-1.64-0.52-2.51c1.58,0,3.1,0,4.78,0c-0.29,0.87-0.57,1.7-0.89,2.63
				c1.28-0.15,1.13-1.36,1.47-2.07c0.43-0.91,1.12-2.06,2.11-2.61c-0.12,0.84-0.48,1.7-0.27,2.39c0.32,1.05-0.05,1.81-0.39,2.69
				c-0.08,0.21,0.27,0.6,0.47,0.99c0.28-0.3,0.37-0.35,0.38-0.42c0.24-2.11,0.25-2.14,2.18-1.37c0.84,0.33,1.7,0.6,2.29,1.44
				c0.31,0.45,0.99,0.64,1.79,1.12c-0.59,0.05-0.93,0.1-1.27,0.1c-1.46-0.01-2.86-0.01-4.09,1.07c-0.39,0.34-1.27,0.12-1.94,0.31
				c0.68,0.65,1.64,0.55,2.25,0.19c1.9-1.15,3.93-0.96,5.95-0.87c1.33,0.06,2.76,0.05,3.96,0.53c1.87,0.74,4.03,1.21,4.86,3.52
				c0.67,1.86,1.86,3.6,2.18,5.49c0.32,1.93-0.08,3.99-0.28,5.98c-0.13,1.27-0.46,2.52-0.75,3.77c-0.12,0.54-0.34,1.06-0.55,1.69
				c0.39-0.02,0.67-0.04,1.12-0.06c0,2.69,0.17,5.33-0.05,7.94c-0.21,2.47,0.33,4.66,1.37,6.84
				C44.67,99.04,45.26,100.39,44.98,101.89z"/>
		</g>
	</g>
</g>
<line class="st0" x1="13.94" y1="3.72" x2="45.69" y2="65.12"/>
<path class="st0" d="M56.55,65.03H11.74c-4.56,0-8.26-3.7-8.26-8.26V11.95c0-4.56,3.7-8.26,8.26-8.26h44.81
	c4.56,0,8.26,3.7,8.26,8.26v44.81C64.81,61.33,61.11,65.03,56.55,65.03z"/>
<g>
	<defs>
		<path id="SVGID_75_" d="M14.06,3.69h42.59c4.56,0,8.26,3.7,8.26,8.26v44.81c0,4.56-3.7,8.26-8.26,8.26H45.33L14.06,3.69z"/>
	</defs>
	<clipPath id="SVGID_6_">
		<use xlink:href="#SVGID_75_"  style="overflow:visible;"/>
	</clipPath>
	<g class="st4">
		<path class="st27" d="M63.24,26.29c-0.19-0.56-0.37-1.14-0.39-1.72c-0.05-1.48,0-2.97-0.02-4.46c0-0.27-0.2-0.54-0.23-0.82
			c-0.05-0.54-0.13-1.1-0.05-1.63c0.12-0.82,0.48-1.62,0.54-2.45c0.08-1.18,0.15-2.37-0.57-3.49c-0.46-0.72-0.63-1.63-0.96-2.45
			c-0.09-0.23-0.23-0.5-0.43-0.62c-1.14-0.7-2.27-1.4-3.72-1.29c-0.38,0.03-0.82-0.31-1.19-0.54c-1.07-0.66-2.13-1.36-3.29-2.11
			c0.01-0.25-0.13-0.81,0.09-1.06c0.51-0.59,0.53-1.24,0.55-1.93c0.01-0.19,0.12-0.4,0.22-0.57c0.21-0.33,0.56-0.62,0.65-0.98
			c0.19-0.74,0.27-1.51,0.37-2.27c0.02-0.17,0.01-0.39-0.09-0.51c-0.56-0.65-0.33-1.42-0.15-2.06c0.15-0.53,0.03-0.76-0.3-1.05
			c-0.57-0.52-1.11-1.08-1.72-1.56c-0.36-0.28-0.82-0.55-1.26-0.59c-1.03-0.08-2.08-0.07-3.12-0.01c-0.39,0.02-0.84,0.2-1.15,0.45
			c-0.66,0.54-1.28,1.14-1.86,1.77c-0.19,0.21-0.32,0.58-0.3,0.86c0.04,0.62,0.2,1.24,0.31,1.88c-0.63,0.19-0.74,0.59-0.61,1.11
			c0.08,0.32,0.11,0.65,0.22,0.96c0.23,0.65,0.36,1.4,0.79,1.9c0.23,0.27,0.36,0.47,0.39,0.79C46,2.27,46,2.68,46.1,3.06
			c0.16,0.61,0.38,1.21,0.52,1.64c-1.03,0.66-1.91,1.2-2.76,1.78c-0.74,0.5-1.4,1.05-2.42,0.95c-1.18-0.12-2.2,0.54-3.02,1.25
			c-0.55,0.48-0.79,1.35-1.1,2.07c-0.26,0.59-0.37,1.25-0.65,1.83c-0.53,1.13-0.28,2.28-0.14,3.42c0.1,0.83,0.31,1.65,0.47,2.48
			c0.02,0.08-0.01,0.17-0.02,0.25c-0.07,0.47-0.21,0.94-0.22,1.41c-0.03,1.63,0,3.27-0.02,4.91c0,0.21-0.07,0.44-0.16,0.62
			c-0.51,0.96-0.97,1.96-1.05,3.05c-0.04,0.55,0.24,1.12,0.32,1.69c0.12,0.93,0.19,1.87,0.28,2.8c0.01,0.08,0,0.18,0.04,0.25
			c0.39,0.86,0.16,1.73,0.07,2.61c-0.11,1.11-0.26,2.29-0.02,3.35c0.26,1.16,0.28,2.27,0,3.36c-0.39,1.53,0.19,3.35,1.52,4.22
			c0.21,0.14,0.47,0.21,0.72,0.29c0.35,0.11,0.71,0.22,1.06,0.31c0.36,0.09,0.89,0.35,1.07,0.2c0.43-0.34,0.88-0.75,0.73-1.5
			c-0.13-0.62-0.03-1.3-0.03-1.95c0.07,0,0.13-0.01,0.2-0.01c0.11,0.26,0.3,0.52,0.33,0.8c0.12,1.13,0.15,2.26,0.3,3.39
			c0.17,1.22,0.43,2.44,0.67,3.65c0.07,0.36,0.2,0.7,0.31,1.05c0.26,0.78,0.57,1.54,0.78,2.33c0.2,0.73,0.33,1.48,0.42,2.23
			c0.11,0.95,0.28,1.93,0.17,2.86c-0.17,1.55-0.63,3.06-0.81,4.61c-0.18,1.63,0.03,3.26,0.48,4.85c0.16,0.56,0.26,1.13,0.38,1.69
			c0.17,0.79,0.31,1.58,0.49,2.36c0.11,0.46,0.28,0.91,0.39,1.38c0.12,0.57,0.16,1.16,0.31,1.72c0.14,0.51,0.4,0.99,0.55,1.5
			c0.13,0.43,0.34,0.93,0.22,1.3c-0.16,0.49-0.58,0.9-0.94,1.31c-0.34,0.4-0.74,0.75-1.1,1.13c-0.52,0.54-0.5,0.88,0.08,1.37
			c3.48,0,6.97,0,10.45,0c0.4-0.3,0.56-0.99,0.26-1.3c-0.75-0.75-1.65-1.35-2.07-2.38c-0.08-0.2-0.23-0.44-0.19-0.62
			c0.17-0.68,0.41-1.33,0.62-2c0.29-0.95,0.6-1.9,0.84-2.87c0.26-1.06,0.45-2.13,0.66-3.2c0.11-0.55,0.19-1.1,0.29-1.65
			c0.17-0.95,0.47-1.91,0.48-2.86c0.02-1.34-0.17-2.68-0.27-4.02c0-0.04-0.01-0.08-0.02-0.13c-0.17-0.79-0.4-1.56-0.5-2.36
			c-0.2-1.61,0.09-3.19,0.53-4.74c0.25-0.9,0.57-1.79,0.84-2.68c0.16-0.54,0.31-1.09,0.44-1.64c0.11-0.48,0.21-0.97,0.29-1.46
			c0.2-1.2,0.44-2.4,0.58-3.61c0.08-0.71,0.02-1.44,0.02-2.31c0.83,0.86,0.6,1.77,0.46,2.54c-0.12,0.66,0.35,0.82,0.57,1.14
			c0.12,0.17,0.61,0.14,0.92,0.11c0.27-0.03,0.53-0.17,0.78-0.28c0.45-0.19,0.98-0.29,1.34-0.6c0.96-0.82,1.7-1.8,1.53-3.18
			c-0.06-0.49-0.23-0.98-0.22-1.47c0-1.08-0.07-2.15,0.17-3.25c0.2-0.88-0.17-1.88-0.16-2.82c0.02-1.45,0.15-2.89,0.23-4.34
			c0-0.04,0-0.1,0.02-0.12c0.64-0.79,0.32-1.78,0.54-2.67C64.2,28.13,63.55,27.22,63.24,26.29z M46.07-0.45
			c-0.03-0.12-0.03-0.25-0.03-0.38c0.03-0.63-0.13-1.1-0.93-1.1c0.02-0.05,0.04-0.11,0.05-0.16c0.19-0.04,0.38-0.07,0.65-0.12
			c0.08-0.48,0.11-0.98,0.25-1.45c0.06-0.21,0.31-0.48,0.51-0.51c0.88-0.17,1.77-0.22,2.65-0.39C50.12-4.74,51-5,51.88-5.22
			c0.46,0.68,1.02,1.42,1.45,2.22c0.24,0.45,0.36,0.91,1,1c-0.09,0.04-0.2,0.05-0.26,0.12c-0.21,0.22-0.48,0.42-0.59,0.68
			c-0.2,0.5-0.35,1.03-0.44,1.55c-0.11,0.62-0.2,1.26-0.18,1.89c0.02,0.67-0.38,0.98-0.83,1.31c-0.12,0.08-0.26,0.14-0.35,0.25
			c-0.84,1-1.99,0.64-3.03,0.62C48.3,4.4,47.96,3.99,47.59,3.8c-0.82-0.42-0.91-1.13-0.96-1.96C46.58,1.06,46.26,0.31,46.07-0.45z
			 M41.43,36.22c-0.42,1.39-0.25,2.79-0.06,4.19c0.07,0.54,0.08,1.09,0.11,1.64c-0.33-0.5-0.61-0.94-0.91-1.36
			c-0.33-0.46-0.71-0.89-1.01-1.36c-0.1-0.15-0.08-0.43-0.03-0.62c0.35-1.18,0.74-2.35,1.08-3.53c0.15-0.51,0.21-1.05,0.32-1.57
			c0.13-0.56,0.35-1.11,0.4-1.67c0.07-0.83,0.09-1.67,0.02-2.49c-0.07-0.88-0.36-1.75-0.39-2.63c-0.02-0.64,0.26-1.28,0.33-1.93
			c0.12-1.04,0.19-2.09,0.28-3.14c0.01-0.17,0.03-0.34,0.05-0.6c0.47,1.03,0.9,1.95,1.3,2.88c0.06,0.15,0.04,0.33,0.04,0.5
			c0,1.34,0.07,2.68-0.03,4.01c-0.05,0.69-0.4,1.36-0.58,2.04c-0.14,0.51-0.26,1.03-0.32,1.56c-0.1,0.94-0.12,1.89-0.24,2.83
			C41.76,35.39,41.56,35.8,41.43,36.22z M50.12,76.84c-0.05,0.81-0.24,1.61-0.37,2.41c-0.53-3.16-0.6-6.33-0.06-9.51
			c0.06,0.02,0.12,0.02,0.12,0.04C50.25,72.12,50.28,74.48,50.12,76.84z M49.76,61.99c0.46,1.28,0.47,2.81-0.04,4.56
			C49.49,64.92,49.01,63.44,49.76,61.99z M57.94,42.05c0.1-0.91,0.21-1.7,0.26-2.48c0.06-1.06,0.38-2.12-0.13-3.17
			c-0.18-0.38-0.17-0.85-0.3-1.26c-0.34-1.08-0.46-2.17-0.38-3.29c0.06-0.89-0.33-1.62-0.76-2.35c-0.1-0.17-0.12-0.4-0.12-0.6
			c-0.01-1.15,0.02-2.29-0.02-3.44c-0.03-0.85,0.06-1.64,0.54-2.39c0.24-0.37,0.3-0.85,0.5-1.44c0.14,0.27,0.26,0.43,0.29,0.6
			c0.06,0.33,0.05,0.68,0.11,1.01c0.18,1.04,0.42,2.07,0.57,3.11c0.06,0.39-0.05,0.81-0.1,1.22c-0.01,0.08-0.08,0.15-0.09,0.23
			c-0.11,1.17-0.3,2.33-0.3,3.5c0,0.7,0.3,1.4,0.46,2.1c0.12,0.51,0.21,1.02,0.37,1.52c0.29,0.92,0.71,1.81,0.9,2.75
			c0.15,0.76,0.64,1.58-0.28,2.33C58.88,40.49,58.53,41.24,57.94,42.05z M63.38,29.29c-0.16,0.86-0.36,1.71-0.49,2.57
			c-0.2,1.32-0.52,2.63-0.37,4c0.12,1.11,0.36,2.27,0.16,3.33c-0.2,1.04-0.16,2.04-0.17,3.06c-0.01,0.64,0.18,1.29,0.22,1.93
			c0.07,1.04-0.69,1.69-1.23,2.42c-0.13,0.18-0.52,0.16-0.8,0.24c-0.36,0.11-0.73,0.22-1.19,0.36c0.5-0.92,0.96-1.76,1.49-2.74
			c-0.27,0.13-0.52,0.16-0.6,0.3c-0.24,0.4-0.39,0.85-0.61,1.26c-0.21,0.4-0.45,0.77-0.68,1.15c-0.06,0-0.13,0-0.19,0.01
			c-0.01-0.24-0.04-0.49-0.04-0.73c0-0.74-0.01-1.49,0.03-2.23c0.03-0.67,0.13-1.34,0.2-2.07c-0.15,0.1-0.25,0.18-0.43,0.3
			c0-0.18-0.05-0.35,0.01-0.43c0.36-0.5,0.68-1.04,1.12-1.46c0.86-0.83,0.87-1.77,0.55-2.81c-0.29-0.93-0.54-1.87-0.83-2.8
			c-0.17-0.53-0.41-1.03-0.56-1.56c-0.15-0.55-0.27-1.13-0.31-1.7c-0.05-0.74-0.08-1.49,0.01-2.23c0.08-0.73,0.32-1.44,0.47-2.16
			c0.05-0.22,0.07-0.47,0.04-0.69c-0.07-0.44-0.18-0.88-0.29-1.31c-0.56-2.07-0.58-4.18-0.49-6.29c0.05-1.16,0.14-2.33,0.77-3.4
			c0.58-1.01,0.4-2.08-0.16-3.09c-0.18-0.31-0.04-0.83-0.78-0.9c0.14,0.62,0.17,1.22,0.41,1.72c0.44,0.9,0,1.66-0.2,2.47
			c-0.03,0.13-0.1,0.25-0.17,0.37c-0.13,0.25-0.21,0.58-0.41,0.72c-0.14,0.09-0.46-0.11-0.7-0.14c-0.12-0.02-0.3,0.01-0.38,0.1
			c-0.88,0.86-1.97,1.02-3.13,1c-0.25,0-0.49,0.06-0.73,0.2c0.81,0.17,1.63,0.32,2.43,0.03c0.43-0.16,0.77-0.55,1.2-0.68
			c0.4-0.12,0.87-0.03,1.49-0.03c-0.21,1.02-0.32,2.02-0.63,2.95c-0.42,1.25-1,2.44-1.5,3.66c-0.06,0.15-0.05,0.33-0.05,0.5
			c0.01,1.51,0.08,3.02,0.03,4.52c-0.02,0.51-0.33,1-0.5,1.5c-0.06,0.18-0.07,0.37-0.03,0.57c0.65-0.87,0.65-0.87,1.24-0.8
			c0.14,1.46,0.26,2.96,0.46,4.44c0.08,0.61,0.36,1.18,0.54,1.78c0.04,0.14,0.05,0.29,0.04,0.44c-0.09,2.45-0.12,4.9-0.28,7.35
			c-0.12,1.76-0.35,3.52-0.63,5.26c-0.15,0.93-0.53,1.83-0.8,2.75c-0.11,0.37-0.2,0.75-0.32,1.12c-0.28,0.91-0.56,1.82-0.85,2.73
			c-0.01,0.02-0.02,0.04-0.02,0.06c-0.13,1.39-0.36,2.77-0.36,4.16c-0.01,0.75,0.35,1.5,0.55,2.26c0.02,0.06,0.03,0.12,0.03,0.19
			c0.1,1.56,0.26,3.11,0.26,4.67c0,0.85-0.3,1.7-0.46,2.55c-0.14,0.71-0.26,1.42-0.42,2.12c-0.14,0.64-0.31,1.27-0.46,1.91
			c-0.15,0.64-0.27,1.29-0.44,1.92c-0.23,0.87-0.48,1.74-0.73,2.6c-0.12,0.41-0.32,0.81-0.37,1.23c-0.03,0.22,0.16,0.47,0.26,0.7
			c0.02,0.04,0.15,0.05,0.16,0.08c0.18,1.16,1.23,1.58,1.92,2.3c0.02,0.02,0.01,0.08,0.02,0.19c-1.45,0-2.9,0-4.43,0
			c0-0.82-0.03-1.66,0.01-2.5c0.06-1.13-0.02-2.31,0.31-3.36c0.45-1.41,0.31-2.81,0.28-4.2c-0.03-1.1-0.46-2.18-0.52-3.28
			c-0.07-1.16,0.08-2.33,0.13-3.49c0.01-0.25,0.02-0.51,0.06-0.76c0.07-0.43,0.16-0.85,0.25-1.27c0.02-0.1,0.06-0.22,0.04-0.31
			c-0.15-0.68-0.32-1.35-0.47-2.02c-0.05-0.22-0.07-0.46-0.07-0.69c-0.01-5.48,0-10.96-0.03-16.44c-0.01-1.12-0.14-2.24-0.22-3.41
			c1-0.36,1.51-1.03,1.41-2.19c-0.09-0.96,0.23-1.81,0.9-2.55c0.52-0.57,0.96-1.23,1.39-1.98c-0.17,0.07-0.4,0.09-0.51,0.21
			c-0.48,0.55-0.91,1.14-1.37,1.71c-0.67,0.83-0.79,1.8-0.74,2.83c0.03,0.64-0.18,1.12-0.82,1.41c-0.76,0.34-1.74-0.19-1.8-1.02
			c-0.06-0.71-0.06-1.45-0.3-2.1c-0.23-0.65-0.7-1.22-1.09-1.81c-0.21-0.32-0.45-0.62-0.71-0.91c-0.13-0.15-0.32-0.25-0.48-0.38
			c-0.04,0.05-0.08,0.1-0.13,0.15c0.32,0.47,0.55,1.07,0.98,1.4c1.07,0.81,1.25,1.98,1.3,3.12c0.05,0.91,0.34,1.5,1.05,1.99
			c0.14,0.09,0.28,0.31,0.28,0.47c-0.02,6.35-0.04,12.7-0.12,19.05c-0.01,0.85-0.33,1.7-0.47,2.55c-0.06,0.39-0.1,0.82-0.02,1.2
			c0.35,1.54,0.63,3.08,0.48,4.66c-0.08,0.84-0.33,1.66-0.49,2.49c-0.03,0.17-0.03,0.34-0.03,0.51c0,1.02-0.04,2.04,0.01,3.06
			c0.05,1.26,0.07,2.54,0.3,3.77c0.14,0.76,0.34,1.45,0,2.19c-0.05,0.11,0.04,0.28,0.07,0.42c0.1,0.48,0.19,0.95,0.31,1.51
			c-1.64,0-3.12,0-4.76,0c0.29-0.3,0.46-0.51,0.67-0.68c0.59-0.48,1.28-0.87,1.38-1.75c0.01-0.11,0.22-0.18,0.28-0.29
			c0.09-0.17,0.24-0.4,0.19-0.55c-0.34-1.15-0.74-2.28-1.1-3.42c-0.13-0.43-0.18-0.89-0.29-1.32c-0.19-0.8-0.41-1.6-0.6-2.41
			c-0.12-0.52-0.19-1.05-0.29-1.58c-0.2-0.98-0.41-1.97-0.6-2.95c-0.03-0.14-0.04-0.3-0.03-0.44c0.08-1.72,0.13-3.45,0.28-5.17
			c0.06-0.65,0.44-1.26,0.51-1.91c0.09-0.83,0.02-1.68-0.01-2.52c-0.01-0.24-0.11-0.48-0.16-0.72c-0.15-0.72-0.27-1.45-0.44-2.16
			c-0.12-0.52-0.3-1.02-0.47-1.53c-0.27-0.82-0.59-1.63-0.82-2.46c-0.19-0.7-0.33-1.42-0.43-2.13c-0.19-1.34-0.35-2.69-0.49-4.04
			c-0.06-0.55-0.03-1.1-0.07-1.65c-0.11-1.6-0.25-3.19-0.33-4.79c-0.05-1.04-0.03-2.06,0.31-3.09c0.26-0.77,0.3-1.64,0.31-2.47
			c0.02-0.9,0.08-1.77,0.58-2.55c0.1-0.15,0.27-0.25,0.38-0.35c0.24,0.42,0.42,0.71,0.59,1.01c0.07-0.03,0.15-0.06,0.22-0.09
			c-0.05-0.19-0.04-0.42-0.15-0.57c-0.46-0.62-0.7-1.19-0.58-2.05c0.19-1.33,0.12-2.71,0.06-4.07c-0.02-0.48-0.33-0.95-0.52-1.42
			c-0.31-0.82-0.55-1.67-0.97-2.43c-0.55-1.01-0.54-2.05-0.51-3.16c0.69-0.03,1.29-0.1,1.86,0.45c0.29,0.28,0.84,0.35,1.29,0.39
			c0.6,0.06,1.21,0.02,1.82,0.02c0.01-0.08,0.03-0.16,0.04-0.23c-0.21-0.05-0.42-0.15-0.62-0.14c-1.23,0.06-2.36-0.12-3.28-1.04
			c-0.09-0.09-0.37-0.02-0.56,0.01c-0.16,0.03-0.31,0.13-0.56,0.24c-0.32-0.95-0.8-1.81-0.85-2.69c-0.05-0.89,0.32-1.8,0.51-2.7
			c-0.06-0.04-0.12-0.08-0.18-0.12c-0.16,0.15-0.38,0.27-0.46,0.45c-0.22,0.54-0.41,1.09-0.56,1.65c-0.22,0.77,0.08,1.47,0.4,2.15
			c0.27,0.57,0.57,1.1,0.54,1.8c-0.03,0.75,0.22,1.5,0.21,2.25c-0.03,1.5-0.12,2.99-0.26,4.49c-0.06,0.61-0.34,1.19-0.43,1.79
			c-0.07,0.49-0.02,1-0.02,1.5c0,0.04,0.04,0.08,0.04,0.12c0.1,1.29,0.65,2.53,0.41,3.85c-0.1,0.54-0.29,1.06-0.44,1.59
			c-0.27,0.99-0.54,1.98-0.82,2.96c-0.21,0.74-0.32,1.54-0.66,2.22c-0.47,0.92,0.13,1.43,0.56,2.04c0.42,0.59,0.88,1.16,1.29,1.76
			c0.1,0.15,0.04,0.4,0.06,0.61c-0.05,0.01-0.1,0.01-0.16,0.02c-0.07-0.21-0.14-0.42-0.21-0.63c-0.05,0.01-0.11,0.01-0.16,0.02
			c0.08,1.64,0.16,3.28,0.24,4.92c-0.07,0.02-0.13,0.03-0.19,0.05c-0.79-0.74-0.73-2.1-1.88-2.6c0.45,0.86,0.91,1.72,1.4,2.66
			c-1.16-0.41-2.33-0.59-2.92-1.86c-0.49-1.04-0.33-2.03-0.14-3.07c0.15-0.85,0.46-1.72-0.1-2.56c-0.07-0.11-0.06-0.29-0.06-0.43
			c0-1.15-0.02-2.29,0.01-3.44c0.01-0.35,0.24-0.7,0.2-1.04c-0.1-0.97-0.28-1.92-0.42-2.88c-0.01-0.04-0.03-0.08-0.03-0.12
			c-0.1-1.17-0.36-2.35-0.25-3.5c0.08-0.88,0.62-1.71,0.95-2.57c0.06-0.15,0.17-0.29,0.17-0.44c-0.01-1.04-0.06-2.08-0.08-3.12
			c-0.01-1.09,0-2.18,0-3.26c0.06,0,0.12,0,0.18,0c0.17,0.17,0.33,0.34,0.5,0.51c0.05-0.04,0.11-0.08,0.16-0.12
			c-0.18-0.35-0.38-0.69-0.52-1.06c-0.12-0.32-0.17-0.67-0.23-1.01c-0.19-1-0.44-2-0.53-3.01c-0.04-0.5,0.21-1.04,0.36-1.55
			c0.12-0.43,0.2-0.91,0.45-1.26c0.56-0.81,0.5-2,1.48-2.52c0.7-0.38,1.38-0.83,2.24-0.85c1.08-0.04,2.15-0.22,3.23-0.24
			c0.48-0.01,0.96,0.26,1.45,0.38c0.42,0.1,0.85,0.16,1.27,0.22c0.06,0.01,0.14-0.12,0.27-0.25c-1.36-0.32-2.63-0.61-3.91-0.91
			c0.77-0.47,1.6-0.99,2.44-1.48c0.3-0.17,0.77,0.13,0.82,0.49c0.03,0.2,0.03,0.4,0.11,0.6c0.48-0.49-0.05-0.93-0.09-1.39
			c-0.05-0.52-0.01-1.05-0.01-1.67c1.15,0.45,1.19,1.57,1.62,2.41c0.06-0.02,0.13-0.04,0.19-0.06c-0.09-0.44-0.18-0.88-0.28-1.36
			c0.85,0,1.68,0,2.58,0c-0.16,0.47-0.31,0.92-0.48,1.42c0.69-0.08,0.61-0.74,0.79-1.12c0.23-0.49,0.6-1.11,1.14-1.41
			c-0.06,0.45-0.26,0.92-0.15,1.29c0.17,0.57-0.03,0.98-0.21,1.45c-0.04,0.12,0.15,0.32,0.25,0.53c0.15-0.16,0.2-0.19,0.2-0.22
			c0.13-1.14,0.14-1.15,1.18-0.74c0.45,0.18,0.92,0.32,1.24,0.78c0.17,0.24,0.53,0.34,0.97,0.6c-0.32,0.02-0.5,0.05-0.69,0.05
			c-0.79-0.01-1.54-0.01-2.21,0.58c-0.21,0.19-0.69,0.07-1.05,0.17c0.37,0.35,0.89,0.3,1.21,0.1c1.03-0.62,2.12-0.52,3.22-0.47
			c0.72,0.03,1.49,0.03,2.14,0.28c1.01,0.4,2.18,0.65,2.62,1.9c0.36,1,1,1.94,1.18,2.97c0.17,1.04-0.04,2.16-0.15,3.23
			c-0.07,0.69-0.25,1.36-0.4,2.04c-0.07,0.29-0.18,0.57-0.3,0.91c0.21-0.01,0.36-0.02,0.61-0.03c0,1.45,0.09,2.88-0.03,4.29
			c-0.11,1.33,0.18,2.51,0.74,3.69C63.21,27.76,63.53,28.48,63.38,29.29z"/>
		<path class="st27" d="M52.28,30.54c0.3-0.24,0.51-0.34,0.63-0.51c0.6-0.91,0.73-1.93,0.63-2.99c-0.05-0.54,0.15-0.97,0.52-1.36
			c0.43-0.46,0.67-1.46,0.46-1.87c-0.07,0.13-0.14,0.22-0.18,0.32c-0.21,0.5-0.27,1.16-0.64,1.46c-0.52,0.43-0.5,0.89-0.53,1.42
			c-0.04,0.7,0.15,1.41-0.27,2.08C52.66,29.47,52.53,29.94,52.28,30.54z"/>
		<path class="st27" d="M46.35,27.39c-0.01-0.4,0.04-0.84-0.12-1.18c-0.37-0.8-0.84-1.55-1.35-2.45c-0.03,0.31-0.1,0.54-0.05,0.74
			c0.08,0.3,0.18,0.62,0.37,0.85c0.65,0.75,0.92,1.6,0.79,2.58c-0.03,0.25-0.06,0.53,0.02,0.76c0.18,0.54,0.43,1.07,0.65,1.6
			c0.08-0.03,0.16-0.05,0.24-0.08c0.01-0.1,0.03-0.2,0.03-0.29c0-0.08,0.01-0.2-0.04-0.24C46.23,29.03,46.37,28.19,46.35,27.39z"/>
		<path class="st27" d="M45.45,57.57c0.48,0.63,0.91,1.25,0.89,2.13c-0.02,0.93,1.12,1.53,2.15,1.06c-0.49-0.15-0.99-0.29-1.6-0.47
			c-0.07-0.48-0.13-1.05-0.25-1.6c-0.05-0.23-0.23-0.44-0.36-0.65c-0.07-0.11-0.15-0.22-0.25-0.3c-0.14-0.13-0.31-0.23-0.46-0.34
			C45.53,57.46,45.49,57.52,45.45,57.57z"/>
		<path class="st27" d="M52.89,58.69c-0.2,0.54-0.26,1.13-0.36,1.63c-0.55,0.17-1.03,0.31-1.58,0.48c0.73,0.47,1.72,0.02,2.01-0.6
			c0.32-0.7,0.08-1.59,0.76-2.17c0.13-0.11,0.11-0.38,0.16-0.58c-0.07-0.03-0.14-0.07-0.22-0.1C53.4,57.79,53.07,58.21,52.89,58.69z
			"/>
		<path class="st27" d="M44.52,16.4c-0.09-0.03-0.13-0.15-0.11-0.24c0.02-0.09,0.07-0.16,0.13-0.23l-0.11,0.11
			c-0.08,0.09-0.17,0.2-0.2,0.32c-0.03,0.12,0.01,0.27,0.12,0.33c0.11,0.06,0.27,0.02,0.34-0.09c0.07-0.11,0.06-0.26-0.02-0.36
			C44.73,16.31,44.62,16.43,44.52,16.4z"/>
		<path class="st27" d="M54.8,16.03l-0.11-0.11c0.06,0.07,0.11,0.14,0.13,0.23c0.02,0.1-0.02,0.21-0.11,0.24
			c-0.09,0.03-0.2-0.09-0.14-0.16c-0.08,0.1-0.09,0.25-0.02,0.36c0.07,0.11,0.23,0.15,0.34,0.09c0.11-0.06,0.15-0.21,0.12-0.33
			C54.96,16.23,54.88,16.13,54.8,16.03z"/>
	</g>
</g>
</svg>
