<?xml version="1.0" encoding="utf-8"?>
<!-- Generator: Adobe Illustrator 23.0.1, SVG Export Plug-In . SVG Version: 6.00 Build 0)  -->
<svg version="1.1" id="Layer_1" xmlns="http://www.w3.org/2000/svg" xmlns:xlink="http://www.w3.org/1999/xlink" x="0px" y="0px"
	 viewBox="0 0 68.32 68.6" style="enable-background:new 0 0 68.32 68.6;" xml:space="preserve">
<style type="text/css">
	.st0{fill:none;stroke:#808080;stroke-width:0.25;stroke-miterlimit:10;}
	.st1{fill:#255271;}
	.st2{clip-path:url(#SVGID_2_);}
	.st3{clip-path:url(#SVGID_4_);fill:#255271;}
	.st4{clip-path:url(#SVGID_6_);}
	.st5{clip-path:url(#SVGID_8_);fill:#255271;}
	.st6{clip-path:url(#SVGID_10_);}
	.st7{clip-path:url(#SVGID_12_);fill:#255271;}
	.st8{clip-path:url(#SVGID_14_);}
	.st9{clip-path:url(#SVGID_16_);fill:#255271;}
	.st10{clip-path:url(#SVGID_18_);fill:#255271;}
	.st11{clip-path:url(#SVGID_18_);fill:#464241;}
	.st12{clip-path:url(#SVGID_20_);}
	.st13{clip-path:url(#SVGID_22_);fill:#255271;}
	.st14{clip-path:url(#SVGID_24_);}
	.st15{fill:#464241;}
	.st16{clip-path:url(#SVGID_26_);}
	.st17{clip-path:url(#SVGID_28_);fill:#464241;}
	.st18{clip-path:url(#SVGID_28_);fill:#255271;}
	.st19{clip-path:url(#SVGID_30_);}
	.st20{clip-path:url(#SVGID_32_);}
	.st21{clip-path:url(#SVGID_34_);}
	.st22{clip-path:url(#SVGID_36_);}
	.st23{clip-path:url(#SVGID_38_);}
	.st24{clip-path:url(#SVGID_40_);}
	.st25{fill:none;}
	.st26{clip-path:url(#SVGID_42_);}
	.st27{fill:#8A867E;}
	.st28{clip-path:url(#SVGID_44_);}
	.st29{clip-path:url(#SVGID_46_);}
	.st30{fill:#FFFFFF;}
	.st31{clip-path:url(#SVGID_48_);}
	.st32{clip-path:url(#SVGID_50_);fill:#464241;}
	.st33{clip-path:url(#SVGID_50_);fill:#255271;}
	.st34{clip-path:url(#SVGID_52_);}
	.st35{clip-path:url(#SVGID_54_);fill:#CCCCCC;}
	.st36{clip-path:url(#SVGID_54_);}
	.st37{clip-path:url(#SVGID_56_);}
	.st38{fill:#808080;}
	.st39{clip-path:url(#SVGID_58_);fill:#CCCCCC;}
	.st40{clip-path:url(#SVGID_58_);}
	.st41{clip-path:url(#SVGID_60_);}
	.st42{fill:#DF9F6F;}
	.st43{clip-path:url(#SVGID_62_);fill:#CCCCCC;}
	.st44{clip-path:url(#SVGID_62_);}
	.st45{fill:none;stroke:#808080;stroke-width:0.5;stroke-miterlimit:10;}
	.st46{clip-path:url(#SVGID_64_);fill:#8A867E;}
	.st47{clip-path:url(#SVGID_66_);}
	.st48{clip-path:url(#SVGID_70_);}
	.st49{clip-path:url(#SVGID_72_);fill:#8A867E;}
	.st50{clip-path:url(#SVGID_72_);fill:#FFFFFF;}
	.st51{clip-path:url(#SVGID_74_);}
	.st52{clip-path:url(#SVGID_76_);}
	.st53{clip-path:url(#SVGID_78_);}
	.st54{clip-path:url(#SVGID_80_);fill:#8A867E;}
	.st55{clip-path:url(#SVGID_82_);}
	.st56{clip-path:url(#SVGID_84_);}
	.st57{clip-path:url(#SVGID_88_);}
	.st58{clip-path:url(#SVGID_90_);}
</style>
<path class="st0" d="M56.55,65.03H11.74c-4.56,0-8.26-3.7-8.26-8.26V11.95c0-4.56,3.7-8.26,8.26-8.26h44.81
	c4.56,0,8.26,3.7,8.26,8.26v44.81C64.81,61.33,61.11,65.03,56.55,65.03z"/>
<g>
	<defs>
		<path id="SVGID_81_" d="M45.44,65.03H11.74c-4.56,0-8.26-3.7-8.26-8.26V11.95c0-4.56,3.7-8.26,8.26-8.26h2.44L45.44,65.03z"/>
	</defs>
	<clipPath id="SVGID_2_">
		<use xlink:href="#SVGID_81_"  style="overflow:visible;"/>
	</clipPath>
	<g class="st2">
		<path class="st15" d="M17.42,50.3L17.42,50.3C17.42,50.27,17.42,50.28,17.42,50.3z"/>
		<path class="st27" d="M33.31,119.95c-0.31-0.95-1.07-1.74-1.54-2.65c-0.65-1.25-1.7-2.29-1.9-3.8c-0.1-0.79-0.47-1.58-0.85-2.31
			c-1.08-2.07-1.12-2.06-1.06-4.21c0.01-0.39,0.2-0.78,0.34-1.17c0.37-1.02,0.91-2.01,1.09-3.06c0.31-1.77,0.43-3.57,0.57-5.37
			c0.1-1.32-0.22-2.77,0.23-3.93c0.77-1.95-0.22-3.58-0.39-5.36c-0.11-1.07-0.5-2.23-0.23-3.19c0.53-1.89,1.01-3.76,0.96-5.74
			c-0.04-1.39-0.02-2.79,0.01-4.18c0.01-0.32,0.18-0.64,0.24-0.96c0.21-1.27,0.61-2.64-0.27-3.74c-1.78-2.25-3.63-4.45-5.57-6.56
			c-0.89-0.96-1.57-2.3-3.24-2.33c-0.54-0.01-1.11-1.46-0.74-1.8c0.84-0.79,0.51-1.77,0.66-2.68c0.06-0.36,0.29-0.89,0.56-0.98
			c0.8-0.26,1.69-0.26,2.5-0.52c0.49-0.16,1.21-0.55,1.28-0.93c0.3-1.61,0.4-3.26,0.58-4.96c0.98-0.04,1.27-0.93,1.21-1.61
			c-0.07-0.69-0.74-1.3-1.04-1.99c-0.18-0.42-0.39-1.18-0.2-1.35c0.83-0.74-0.1-1.15-0.2-1.7c-0.04-0.21-0.22-0.39-0.29-0.6
			c-0.29-0.78-0.57-1.57-0.9-2.48c0.76-1.1,0.68-2.26-0.43-3.38c-0.95-0.96-1.96-1.87-2.94-2.8c-1.29,0-2.57,0-3.86,0
			c-1.46,0.36-2.96,0.58-4.36,1.11c-3.26,1.22-5.33,4.02-5.26,7.59c0.03,1.43,0.35,2.86,0.5,4.3c0.13,1.25,0.41,2.44,1.21,3.45
			c0.77,0.98,1.4,1.93,1.35,3.35c-0.06,1.76-0.19,3.44-1.03,5.01c-0.9,1.67-1.81,3.33-2.68,5.01c-0.46,0.88-1.05,1.76-1.26,2.71
			c-0.3,1.41-0.35,2.88-0.42,4.33c-0.12,2.42-0.21,4.85-0.23,7.27c-0.01,0.87-0.12,1.71,0.53,2.59c1.3,1.74,2.31,3.7,3.53,5.51
			c0.81,1.2,1.68,2.31,1.49,3.88c-0.04,0.35,0.02,0.71,0.08,1.06c0.31,1.92,0.76,3.84,0.91,5.77c0.06,0.88-0.29,1.92-0.78,2.67
			c-0.78,1.21-1.87,2.21-2.76,3.35c-0.53,0.68-1.17,1.41-1.34,2.21c-0.36,1.68-0.44,3.42-0.65,5.14c-0.04,0.31-0.19,0.61-0.23,0.92
			c-0.16,1.32-0.46,2.7,0.32,3.9c0.73,1.12,1.64,2.12,2.44,3.2c0.25,0.35,0.52,0.77,0.55,1.17c0.08,0.82,0,1.66,0,2.49
			c0,3.96,0,7.93,0.02,11.89c0,0.43,0.1,0.85,0.13,1.28c0.12,1.81,0.25,3.62,0.34,5.43c0.01,0.26-0.15,0.53-0.24,0.79
			c-0.41,1.2-1.03,2.37-1.2,3.6c-0.35,2.48-0.45,4.98-1.58,7.3c-0.47,0.97-0.71,2.05-1.04,3.08c-0.34,1.06-0.89,2.12-0.93,3.2
			c-0.06,1.71,0.18,3.45,0.37,5.16c0.16,1.4,0.4,2.8,0.68,4.18c0.2,0.94,0.55,1.85,0.8,2.78c0.24,0.9,0.46,1.81,0.65,2.72
			c0.19,0.94,0.22,1.93,0.53,2.83c0.67,1.96,1.46,3.88,2.26,5.94c0.14-0.02,0.46-0.07,0.81-0.13c-0.37-1.33-0.66-2.56-1.06-3.76
			c-0.43-1.31-1.07-2.55-1.42-3.88c-0.48-1.8-0.76-3.65-1.13-5.48c-0.17-0.84-0.36-1.68-0.54-2.52c-0.31-1.46-0.82-2.91-0.89-4.38
			c-0.08-1.9-0.41-3.85,0.47-5.71c0.49-1.03,0.47-2.34,1.07-3.26c1.6-2.41,1.39-5.23,2.03-7.84c0.24-0.95,0.59-1.88,0.76-2.84
			c0.16-0.92,0.98-1.57,0.77-2.66c-0.33-1.72-0.6-3.49-0.63-5.24c-0.08-4.89-0.05-9.78,0-14.67c0.01-1.18-0.49-1.94-1.31-2.67
			c-1.9-1.69-2.54-3.84-2.11-6.32c0.3-1.68,0.59-3.36,0.95-5.02c0.13-0.58,0.35-1.19,0.72-1.65c1.38-1.74,3.16-3.17,3.96-5.37
			c0.27,0.64,0.5,1.26,0.8,1.84c0.69,1.33,1.33,2.69,2.14,3.95c1.05,1.62,2.27,3.14,3.39,4.72c1.31,1.85,2.54,3.76,3.93,5.55
			c0.73,0.95,1.14,1.89,1.08,3.08c-0.04,0.78-0.12,1.59,0.03,2.35c0.26,1.35,0.17,2.78,1.09,3.99c0.3,0.39,0.33,1.13,0.23,1.66
			c-0.18,0.96-0.57,1.88-0.85,2.83c-0.51,1.72-1,3.46-1.51,5.18c-0.52,1.77-1.17,3.48-2.24,5.01c-1.19,1.71-1.88,3.63-1.35,5.7
			c0.59,2.29-1.07,3.82-1.69,5.7c-0.12,0.37-0.29,0.75-0.53,1.04c-1.05,1.24-1.87,2.53-1.75,4.28c0.1,1.42-0.01,2.85-0.03,4.28
			c-0.02,1,0.03,2.01-0.09,2.99c-0.21,1.76-0.63,3.51-0.77,5.28c-0.14,1.74-0.07,3.5-0.03,5.25c0.04,1.77,0.1,3.55,0.28,5.31
			c0.06,0.61,0.17,1.5,1.21,1.38c0.08,0.38,0.06,0.86,0.29,1.08c1.17,1.11,2.38,2.19,4.19,1.91c-0.14,0.23-0.27,0.47-0.44,0.75
			c0.3,0.17,0.6,0.36,0.91,0.52c1.41,0.7,2.81,1.46,4.26,2.07c0.85,0.36,1.91,0.84,2.67,0.61c1.06-0.31,1.87,0.01,2.81,0.22
			c0.01,0.8-0.48,0.86-1.1,0.86c-6.39-0.01-12.78-0.01-19.17-0.02c-0.27,0-0.55-0.07-0.79-0.1c-0.41-2,0.48-3.65,1.18-5.33
			c-0.73-0.32-1.15-0.11-1.4,0.55c-0.19,0.5-0.45,0.97-0.62,1.48c-0.53,1.61-0.79,3.2,0.56,4.58c7.21,0,14.43,0,21.64,0
			c0.07-0.16,0.18-0.31,0.21-0.48c0.15-0.68,0.5-1.43,0.33-2.02c-0.11-0.36-1.02-0.61-1.6-0.68c-0.88-0.11-1.78-0.01-2.67-0.03
			c-0.27-0.01-0.55-0.07-0.79-0.19c-2-0.93-3.99-1.88-5.99-2.83c0,0,0,0,0,0c-1.51-0.77-3.17-1.32-4.11-2.9
			c-0.05-0.08-0.23-0.07-0.37-0.1c-0.19-1.97-0.5-3.93-0.55-5.9c-0.06-2.41-0.01-4.83,0.18-7.23c0.18-2.23,0.69-4.42,0.89-6.65
			c0.16-1.81,0.01-3.64,0.1-5.46c0.03-0.65,0.26-1.33,0.56-1.91c0.51-0.97,1.17-1.85,1.73-2.8c0.31-0.54,0.47-1.17,0.8-1.69
			c0.6-0.93,0.97-1.86,0.56-2.98c-0.56-1.53-0.14-3.06,0.34-4.46c0.36-1.06,1.45-1.87,1.88-2.93c1-2.45,1.83-4.97,2.65-7.49
			c0.45-1.39,0.74-2.84,1.15-4.45c1.61,2.79,3.71,1.33,5.63,0.95c0.28-1.03,0.52-1.96,0.77-2.88c0.11-0.4,0.28-0.79,0.3-1.19
			C33.42,121.76,33.58,120.78,33.31,119.95z M24.84,42.21c0.13,0.21,0.35,0.44,0.36,0.66c0.01,0.33-0.14,0.66-0.22,0.99l-0.06,0.06
			c0.15,0.52,0.24,1.07,0.47,1.56c0.42,0.9,0.92,1.76,1.46,2.78c-0.35,0.17-0.74,0.49-1.15,0.51c-0.38,0.02-0.78-0.29-1.16-0.46
			c-0.05,0.07-0.11,0.14-0.16,0.22c0.2,0.26,0.34,0.6,0.6,0.77c0.66,0.46,0.53,0.96,0.21,1.52c-0.1,0.17-0.27,0.46-0.22,0.53
			c0.87,1-0.21,1.92,0,3.22c-1.07-0.21-1.99-0.37-2.9-0.58c-0.77-0.18-1.51-0.46-2.28-0.63c-1.47-0.33-2.21-1.17-2.34-2.73
			c-0.01-0.14-0.02-0.28-0.02-0.33c-0.74-0.43-1.45-0.63-1.8-1.1c-0.74-1.01-1.55-2.06-1.41-3.44c0.08-0.83,0.46-1.01,1.18-0.56
			c0.7,0.44,1.36,0.94,2.05,1.38c0.8,0.52,1.43,0.18,1.52-0.75c0.13-1.39,0.23-2.78,0.47-4.15c0.09-0.49,0.56-0.9,0.84-1.36
			c0.09-0.15,0.13-0.34,0.18-0.51c0.37-0.11,0.74-0.31,1.1-0.28c0.63,0.06,1.42,0.08,1.82,0.46C24,40.58,24.37,41.45,24.84,42.21z
			 M22,38.75c-0.08,0-0.15,0.01-0.23,0.02C21.85,38.77,21.93,38.75,22,38.75z M21.35,38.88c-0.41,0.17-0.76,0.49-0.92,0.9l0,0
			c0,0,0,0,0,0c0,0,0,0,0,0c-1.22-0.07-1.32,1.02-1.51,1.73c0.19-0.71,0.29-1.8,1.51-1.73C20.59,39.37,20.94,39.05,21.35,38.88z
			 M21.67,38.79c-0.1,0.02-0.19,0.05-0.28,0.08C21.48,38.84,21.57,38.81,21.67,38.79z M14.88,52.89c-0.28,0.15-0.55,0.3-0.83,0.45
			C14.33,53.19,14.6,53.04,14.88,52.89L14.88,52.89z M14.89,52.87c0.06-0.17,0.13-0.34,0.18-0.51
			C15.02,52.53,14.95,52.7,14.89,52.87z M15.11,52.12c0,0.07-0.01,0.13-0.03,0.2C15.09,52.25,15.11,52.19,15.11,52.12z M22.18,38.77
			c0.05,0.01,0.1,0.01,0.15,0.02C22.29,38.78,22.24,38.78,22.18,38.77z M32.46,122.11c-0.24,1.09-0.35,2.22-0.73,3.26
			c-0.4,1.1-2.58,1.37-3.43,0.56c-1.85-1.79-2.74-3.97-2.75-6.53c0-0.43-0.06-0.87,0.01-1.28c0.32-2-0.73-3.41-1.92-4.83
			c-0.68-0.81-1.15-1.79-1.75-2.67c-0.45-0.67-0.95-1.32-1.44-1.97c-0.64-0.85-1.37-1.64-1.94-2.53c-1.04-1.6-2.07-3.21-2.95-4.9
			c-0.94-1.79-1.7-3.67-2.53-5.51c-0.07-0.16-0.07-0.35-0.09-0.52c-0.19-1.98-0.31-3.96-0.59-5.93c-0.2-1.43-0.4-2.94-1.01-4.22
			c-0.87-1.83-1.37-3.67-1.5-5.69c-0.06-0.92-0.62-1.79-0.84-2.71c-0.27-1.11-0.4-2.26-0.65-3.38c-0.11-0.48-0.39-0.92-0.59-1.38
			c-0.13,0.03-0.26,0.07-0.38,0.1c-0.04,0.37-0.18,0.75-0.11,1.1c0.26,1.24,0.6,2.46,0.89,3.7c0.21,0.88,0.36,1.77,0.56,2.66
			c0.17,0.77,0.4,1.54,0.54,2.32c0.07,0.42,0.01,0.87-0.19,1.34c-0.66-1.03-1.34-2.04-1.97-3.09c-0.15-0.25-0.2-0.6-0.19-0.91
			c0.13-4.31,0.23-8.62,0.49-12.93c0.05-0.89,0.71-1.77,1.18-2.6c0.88-1.56,1.95-3.02,2.72-4.63c0.57-1.2,0.77-2.58,1.21-3.85
			c0.1-0.3,0.52-0.69,0.79-0.69c1.1,0.02,1.45-0.62,1.6-1.52c0.9-0.18,1.07-0.82,1.02-1.61c-0.04-0.56,0.02-1.03,0.78-0.79
			c0.98,2.98,1,3.5,5.47,4.02c-0.37,0.35-0.62,0.53-0.81,0.76c-0.25,0.31-0.72,0.79-0.63,0.96c0.57,1.14-0.24,1.99-0.58,2.87
			c-0.56,1.46,0.45,3.31,2.04,3.42c0.05,0,0.09,0,0.13,0c1,0.98,1.85,1.77,2.66,2.61c1.01,1.04,2.09,2.04,2.96,3.19
			c1.07,1.42,2.53,2.79,1.95,4.86c-0.78,2.78-0.2,5.62-0.44,8.42c-0.09,1.07-0.35,2.15-0.71,3.16c-0.39,1.08-0.32,2.03-0.03,3.15
			c0.42,1.61,1.22,3.27,0.73,4.95c-0.78,2.7-0.31,5.44-0.63,8.14c-0.13,1.13-0.83,2.18-1.2,3.29c-0.29,0.89-0.48,1.81-0.7,2.71
			c-0.05,0.22-0.06,0.46-0.12,1.01c-0.48-1.18-0.91-2.05-1.18-2.96c-0.58-1.96-0.98-3.97-1.63-5.9c-0.71-2.11-1.54-4.19-2.46-6.21
			c-0.45-0.99-1.26-1.82-1.84-2.76c-0.19-0.31-0.22-0.78-0.16-1.15c0.1-0.61,0.29-1.22,0.5-1.81c1.09-2.99,0.9-6.1,0.86-9.19
			c-0.01-0.79-0.21-1.59-0.41-2.36c-0.33-1.24,1.34-3.35,2.44-4.39c-0.99-0.87-1.59-0.47-2.71,1.81c-0.38,0-0.76,0-1.27,0
			c1.21,3.4,0.98,6.86,0.87,10.28c-0.04,1.21-0.58,2.39-0.75,3.61c-0.18,1.24-0.85,2.49-0.2,3.76c0.34,0.65,0.68,1.36,1.21,1.85
			c1.05,0.98,1.29,2.32,1.75,3.54c0.65,1.71,1.08,3.51,1.61,5.26c0.47,1.56,0.79,3.19,1.46,4.65c0.78,1.69,1.9,3.23,2.82,4.86
			c0.45,0.79,0.97,1.6,1.13,2.47c0.29,1.55,1.19,2.73,1.88,4.06C31.43,118.89,32.89,120.17,32.46,122.11z"/>
	</g>
</g>
<line class="st0" x1="12.12" y1="3.72" x2="43.87" y2="65.12"/>
<g>
	<defs>
		<path id="SVGID_83_" d="M14.21,3.69H56.8c4.56,0,8.26,3.7,8.26,8.26v44.81c0,2.18-2.22,5.63-2.22,5.63l-2.66,1.88l-2.76,0.86
			H43.95L12.34,3.88L14.21,3.69z"/>
	</defs>
	<clipPath id="SVGID_4_">
		<use xlink:href="#SVGID_83_"  style="overflow:visible;"/>
	</clipPath>
	<g style="clip-path:url(#SVGID_4_);">
		<path class="st15" d="M48.78,0.76L48.78,0.76C48.78,0.75,48.78,0.75,48.78,0.76z"/>
		<path class="st27" d="M58.89,45.08c-0.19-0.6-0.68-1.11-0.98-1.69c-0.41-0.8-1.08-1.46-1.21-2.42c-0.07-0.51-0.3-1.01-0.54-1.47
			c-0.69-1.32-0.71-1.31-0.67-2.68c0.01-0.25,0.13-0.5,0.21-0.74c0.23-0.65,0.58-1.28,0.7-1.95c0.2-1.13,0.27-2.27,0.36-3.42
			c0.07-0.84-0.14-1.76,0.15-2.5c0.49-1.24-0.14-2.28-0.25-3.41c-0.07-0.68-0.32-1.42-0.15-2.03c0.34-1.21,0.64-2.39,0.61-3.65
			c-0.02-0.89-0.01-1.77,0-2.66c0-0.2,0.12-0.41,0.15-0.61c0.13-0.81,0.39-1.68-0.17-2.38c-1.13-1.43-2.31-2.83-3.54-4.17
			c-0.56-0.61-1-1.46-2.06-1.48c-0.34-0.01-0.7-0.93-0.47-1.14c0.54-0.5,0.32-1.13,0.42-1.71c0.04-0.23,0.19-0.57,0.36-0.63
			c0.51-0.17,1.08-0.17,1.59-0.33c0.31-0.1,0.77-0.35,0.82-0.59c0.19-1.02,0.25-2.07,0.37-3.16c0.62-0.03,0.81-0.59,0.77-1.02
			c-0.04-0.44-0.47-0.83-0.66-1.27c-0.12-0.27-0.25-0.75-0.13-0.86c0.53-0.47-0.07-0.73-0.13-1.08c-0.02-0.13-0.14-0.25-0.19-0.38
			c-0.19-0.5-0.37-1-0.58-1.58c0.48-0.7,0.43-1.44-0.27-2.15c-0.61-0.61-1.25-1.19-1.87-1.78c-0.82,0-1.64,0-2.45,0
			c-0.93,0.23-1.88,0.37-2.77,0.7c-2.07,0.78-3.39,2.56-3.35,4.83c0.02,0.91,0.22,1.82,0.32,2.73c0.08,0.8,0.26,1.55,0.77,2.2
			c0.49,0.62,0.89,1.23,0.86,2.13c-0.04,1.12-0.12,2.19-0.66,3.19c-0.57,1.06-1.15,2.12-1.71,3.19c-0.29,0.56-0.67,1.12-0.8,1.72
			c-0.19,0.9-0.22,1.83-0.27,2.75c-0.08,1.54-0.13,3.08-0.14,4.63c0,0.55-0.08,1.09,0.34,1.65c0.83,1.11,1.47,2.35,2.25,3.5
			c0.51,0.76,1.07,1.47,0.95,2.47c-0.03,0.22,0.02,0.45,0.05,0.68c0.2,1.22,0.49,2.44,0.58,3.67c0.04,0.56-0.18,1.22-0.49,1.7
			c-0.5,0.77-1.19,1.4-1.76,2.13c-0.34,0.43-0.75,0.9-0.86,1.41c-0.23,1.07-0.28,2.18-0.41,3.27c-0.02,0.2-0.12,0.39-0.15,0.58
			c-0.1,0.84-0.3,1.72,0.2,2.48c0.46,0.71,1.04,1.35,1.55,2.04c0.16,0.22,0.33,0.49,0.35,0.75c0.05,0.52,0,1.06,0,1.58
			c0,2.52,0,5.04,0.01,7.56c0,0.27,0.06,0.54,0.08,0.81c0.08,1.15,0.16,2.3,0.22,3.46c0.01,0.16-0.1,0.34-0.15,0.5
			c-0.26,0.76-0.66,1.51-0.76,2.29c-0.22,1.58-0.29,3.17-1,4.65c-0.3,0.62-0.45,1.3-0.66,1.96c-0.22,0.68-0.57,1.35-0.59,2.03
			c-0.04,1.09,0.11,2.19,0.24,3.29c0.1,0.89,0.25,1.78,0.44,2.66c0.12,0.6,0.35,1.18,0.51,1.77c0.15,0.57,0.29,1.15,0.41,1.73
			c0.12,0.6,0.14,1.23,0.34,1.8c0.42,1.25,0.93,2.47,1.44,3.78c0.09-0.01,0.29-0.05,0.52-0.08c-0.23-0.84-0.42-1.63-0.67-2.39
			c-0.28-0.83-0.68-1.62-0.9-2.47c-0.3-1.15-0.48-2.32-0.72-3.49c-0.11-0.53-0.23-1.07-0.34-1.6c-0.2-0.93-0.52-1.85-0.57-2.79
			c-0.05-1.21-0.26-2.45,0.3-3.64c0.31-0.65,0.3-1.49,0.68-2.07c1.02-1.54,0.88-3.32,1.29-4.99c0.15-0.61,0.38-1.19,0.48-1.81
			c0.1-0.58,0.62-1,0.49-1.69c-0.21-1.1-0.38-2.22-0.4-3.33c-0.05-3.11-0.03-6.22,0-9.33c0.01-0.75-0.31-1.23-0.83-1.7
			c-1.21-1.07-1.62-2.44-1.34-4.02c0.19-1.07,0.37-2.14,0.6-3.2c0.08-0.37,0.23-0.76,0.46-1.05c0.88-1.1,2.01-2.02,2.52-3.41
			c0.17,0.4,0.32,0.8,0.51,1.17c0.44,0.85,0.84,1.71,1.36,2.51c0.67,1.03,1.44,2,2.16,3c0.84,1.18,1.62,2.39,2.5,3.53
			c0.46,0.6,0.73,1.2,0.69,1.96c-0.03,0.5-0.08,1.01,0.02,1.5c0.17,0.86,0.11,1.77,0.7,2.54c0.19,0.25,0.21,0.72,0.14,1.06
			c-0.12,0.61-0.36,1.2-0.54,1.8c-0.32,1.1-0.63,2.2-0.96,3.3c-0.33,1.12-0.74,2.21-1.42,3.19c-0.76,1.09-1.2,2.31-0.86,3.63
			c0.37,1.46-0.68,2.43-1.07,3.63c-0.08,0.23-0.18,0.48-0.34,0.66c-0.67,0.79-1.19,1.61-1.12,2.72c0.06,0.9-0.01,1.82-0.02,2.72
			c-0.01,0.64,0.02,1.28-0.06,1.9c-0.13,1.12-0.4,2.23-0.49,3.36c-0.09,1.11-0.05,2.23-0.02,3.34c0.03,1.13,0.06,2.26,0.18,3.38
			c0.04,0.39,0.11,0.95,0.77,0.88c0.05,0.24,0.04,0.55,0.19,0.69c0.74,0.7,1.52,1.4,2.67,1.22c-0.09,0.15-0.17,0.3-0.28,0.48
			c0.19,0.11,0.38,0.23,0.58,0.33c0.9,0.45,1.79,0.93,2.71,1.32c0.54,0.23,1.21,0.53,1.7,0.39c0.67-0.2,1.19,0.01,1.79,0.14
			c0.01,0.51-0.31,0.55-0.7,0.55c-4.06-0.01-8.13-0.01-12.19-0.01c-0.17,0-0.35-0.04-0.5-0.06c-0.26-1.27,0.31-2.32,0.75-3.39
			c-0.47-0.21-0.73-0.07-0.89,0.35c-0.12,0.32-0.29,0.62-0.39,0.94c-0.34,1.02-0.5,2.04,0.36,2.92c4.59,0,9.18,0,13.77,0
			c0.05-0.1,0.11-0.2,0.14-0.31c0.09-0.43,0.32-0.91,0.21-1.28c-0.07-0.23-0.65-0.39-1.02-0.43c-0.56-0.07-1.13-0.01-1.7-0.02
			c-0.17,0-0.35-0.05-0.51-0.12c-1.27-0.59-2.54-1.2-3.81-1.8c0,0,0,0,0,0c-0.96-0.49-2.02-0.84-2.61-1.85
			c-0.03-0.05-0.15-0.05-0.23-0.06c-0.12-1.25-0.32-2.5-0.35-3.75c-0.04-1.53-0.01-3.07,0.11-4.6c0.11-1.42,0.44-2.81,0.56-4.23
			c0.1-1.15,0.01-2.32,0.06-3.47c0.02-0.41,0.16-0.85,0.36-1.22c0.32-0.62,0.75-1.18,1.1-1.78c0.2-0.34,0.3-0.74,0.51-1.07
			c0.38-0.59,0.62-1.18,0.36-1.89c-0.35-0.97-0.09-1.94,0.21-2.84c0.23-0.68,0.92-1.19,1.2-1.86c0.63-1.56,1.16-3.16,1.68-4.76
			c0.29-0.89,0.47-1.81,0.73-2.83c1.02,1.78,2.36,0.85,3.58,0.61c0.18-0.66,0.33-1.25,0.49-1.83c0.07-0.25,0.18-0.5,0.19-0.76
			C58.96,46.23,59.06,45.61,58.89,45.08z M53.5-4.38c0.09,0.14,0.22,0.28,0.23,0.42c0.01,0.21-0.09,0.42-0.14,0.63l-0.04,0.04
			c0.1,0.33,0.15,0.68,0.3,0.99c0.27,0.57,0.58,1.12,0.93,1.77c-0.22,0.11-0.47,0.31-0.73,0.32c-0.24,0.01-0.49-0.19-0.74-0.29
			c-0.03,0.05-0.07,0.09-0.1,0.14c0.12,0.17,0.22,0.38,0.38,0.49c0.42,0.29,0.34,0.61,0.13,0.97c-0.06,0.11-0.17,0.29-0.14,0.34
			c0.55,0.64-0.13,1.22,0,2.05c-0.68-0.13-1.27-0.24-1.85-0.37c-0.49-0.11-0.96-0.29-1.45-0.4c-0.94-0.21-1.41-0.75-1.49-1.74
			c-0.01-0.09-0.01-0.18-0.02-0.21c-0.47-0.28-0.92-0.4-1.14-0.7c-0.47-0.64-0.99-1.31-0.9-2.19c0.05-0.53,0.29-0.64,0.75-0.36
			c0.44,0.28,0.86,0.6,1.3,0.88c0.51,0.33,0.91,0.11,0.97-0.48c0.08-0.88,0.15-1.77,0.3-2.64c0.06-0.31,0.36-0.57,0.54-0.87
			c0.06-0.1,0.08-0.21,0.12-0.32c0.23-0.07,0.47-0.2,0.7-0.18c0.4,0.04,0.9,0.05,1.16,0.29C52.97-5.42,53.2-4.86,53.5-4.38z
			 M51.7-6.58c-0.05,0-0.1,0.01-0.14,0.01C51.6-6.57,51.65-6.58,51.7-6.58z M51.28-6.5c-0.26,0.11-0.48,0.31-0.58,0.57l0,0
			c0,0,0,0,0,0c0,0,0,0,0,0c-0.78-0.04-0.84,0.65-0.96,1.1c0.12-0.45,0.19-1.15,0.96-1.1C50.8-6.19,51.02-6.39,51.28-6.5z
			 M51.48-6.56c-0.06,0.01-0.12,0.03-0.18,0.05C51.36-6.53,51.42-6.55,51.48-6.56z M47.17,2.41c-0.18,0.1-0.35,0.19-0.53,0.29
			C46.81,2.6,46.99,2.51,47.17,2.41L47.17,2.41z M47.17,2.4c0.04-0.11,0.08-0.21,0.11-0.32C47.25,2.18,47.21,2.29,47.17,2.4z
			 M47.31,1.93c0,0.04-0.01,0.08-0.02,0.12C47.3,2.01,47.31,1.97,47.31,1.93z M51.81-6.57c0.03,0,0.06,0,0.1,0.01
			C51.88-6.56,51.84-6.56,51.81-6.57z M58.35,46.45c-0.15,0.69-0.22,1.41-0.46,2.07c-0.25,0.7-1.64,0.87-2.18,0.35
			c-1.18-1.14-1.75-2.52-1.75-4.15c0-0.27-0.04-0.55,0.01-0.82c0.2-1.27-0.46-2.17-1.22-3.07c-0.43-0.52-0.73-1.14-1.11-1.7
			c-0.29-0.43-0.6-0.84-0.91-1.25c-0.41-0.54-0.87-1.04-1.23-1.61c-0.66-1.02-1.32-2.04-1.88-3.12c-0.6-1.14-1.08-2.33-1.61-3.51
			c-0.04-0.1-0.04-0.22-0.05-0.33c-0.12-1.26-0.19-2.52-0.37-3.77c-0.13-0.91-0.25-1.87-0.64-2.69c-0.55-1.17-0.87-2.34-0.95-3.62
			c-0.04-0.58-0.39-1.14-0.54-1.72c-0.17-0.71-0.25-1.44-0.42-2.15c-0.07-0.31-0.25-0.59-0.38-0.88c-0.08,0.02-0.16,0.04-0.24,0.07
			c-0.03,0.23-0.12,0.48-0.07,0.7c0.17,0.79,0.38,1.57,0.57,2.35c0.13,0.56,0.23,1.13,0.36,1.69c0.11,0.49,0.25,0.98,0.34,1.47
			c0.05,0.27,0.01,0.55-0.12,0.86c-0.42-0.65-0.85-1.3-1.25-1.96c-0.1-0.16-0.13-0.38-0.12-0.58c0.09-2.74,0.14-5.49,0.31-8.22
			c0.03-0.57,0.45-1.13,0.75-1.66c0.56-0.99,1.24-1.92,1.73-2.94c0.36-0.76,0.49-1.64,0.77-2.45c0.07-0.19,0.33-0.44,0.5-0.44
			c0.7,0.01,0.92-0.4,1.02-0.97c0.57-0.11,0.68-0.52,0.65-1.03c-0.02-0.36,0.01-0.66,0.5-0.51c0.62,1.89,0.64,2.23,3.48,2.56
			c-0.24,0.22-0.4,0.34-0.51,0.49c-0.16,0.2-0.46,0.5-0.4,0.61c0.36,0.73-0.15,1.27-0.37,1.83c-0.36,0.93,0.29,2.11,1.3,2.17
			c0.03,0,0.06,0,0.08,0c0.64,0.62,1.17,1.13,1.69,1.66c0.64,0.66,1.33,1.3,1.88,2.03c0.68,0.9,1.61,1.77,1.24,3.09
			c-0.5,1.77-0.13,3.58-0.28,5.36c-0.06,0.68-0.23,1.37-0.45,2.01c-0.25,0.69-0.21,1.29-0.02,2c0.27,1.02,0.77,2.08,0.46,3.15
			c-0.49,1.72-0.2,3.46-0.4,5.18c-0.08,0.72-0.53,1.39-0.76,2.09c-0.19,0.56-0.31,1.15-0.45,1.73c-0.03,0.14-0.04,0.29-0.08,0.64
			c-0.3-0.75-0.58-1.3-0.75-1.88c-0.37-1.24-0.62-2.53-1.04-3.75c-0.45-1.34-0.98-2.66-1.57-3.95c-0.29-0.63-0.8-1.16-1.17-1.76
			c-0.12-0.2-0.14-0.5-0.1-0.73c0.06-0.39,0.19-0.78,0.32-1.15c0.69-1.9,0.57-3.88,0.55-5.85c-0.01-0.5-0.13-1.01-0.26-1.5
			c-0.21-0.79,0.85-2.13,1.55-2.8c-0.63-0.55-1.01-0.3-1.73,1.15c-0.24,0-0.48,0-0.81,0c0.77,2.16,0.62,4.36,0.55,6.54
			c-0.02,0.77-0.37,1.52-0.48,2.3c-0.11,0.79-0.54,1.59-0.13,2.39c0.21,0.42,0.43,0.87,0.77,1.18c0.67,0.62,0.82,1.48,1.11,2.25
			c0.41,1.09,0.69,2.23,1.02,3.35c0.3,0.99,0.5,2.03,0.93,2.96c0.5,1.08,1.21,2.06,1.8,3.09c0.28,0.5,0.62,1.02,0.72,1.57
			c0.19,0.98,0.76,1.73,1.2,2.58C57.7,44.4,58.62,45.22,58.35,46.45z"/>
		<path class="st27" d="M49.44,62.41c-0.37-0.69-0.61-1.13-0.85-1.57c-0.06,0.01-0.12,0.01-0.18,0.02c0.04,0.36,0,0.77,0.15,1.07
			C48.67,62.14,49.06,62.21,49.44,62.41z"/>
		<path class="st27" d="M54.66,22.85c-0.86,1.17-1.28,2.46-1.14,3.92c0.05,0.47-0.01,0.96,0.11,1.41c0.3,1.14,0.68,2.27,0.38,3.47
			c-0.04,0.17-0.11,0.36-0.09,0.53c0.01,0.11,0.17,0.28,0.27,0.28c0.1,0.01,0.29-0.14,0.3-0.24c0.04-0.38,0.07-0.77,0.03-1.16
			c-0.1-0.97-0.13-1.97-0.4-2.9c-0.31-1.05-0.33-2.07-0.02-3.08c0.29-0.93,0.75-1.81,1.14-2.71c-0.04-0.05-0.08-0.09-0.11-0.14
			C54.97,22.44,54.81,22.64,54.66,22.85z"/>
		<path class="st27" d="M54.19,17.09c0.64,0.28,1.34-0.01,1.92-0.87c-0.34,0.1-0.68,0.22-0.98,0.41c-0.34,0.21-0.59,0.29-0.92-0.05
			c-0.47-0.48-1-0.89-1.56-1.39C52.56,15.78,53.38,16.73,54.19,17.09z"/>
	</g>
</g>
</svg>
