<svg version="1.1" id="Capa_1" xmlns="http://www.w3.org/2000/svg" x="0" y="0" viewBox="0 0 1398.01 438.19" xml:space="preserve"><style>.st2{fill:#fff}</style><path class="st2" d="M349.06 90.12v168.84c-40.65 18.31-85.34 18.68-85.34-18.31V77.67c-23.07-6.96-48.71-6.23-48.71 12.09v97.42l.73 55.3c0 6.23.73 12.45 1.83 15.75-44.32 19.78-87.9 21.24-87.9-17.95V78.03c-23.07-6.96-48.71-6.23-48.71 12.09v151.26c.37 50.54 32.23 71.05 75.81 71.05 24.17 0 52.01-6.23 74.35-22.34 18.68 16.85 38.09 21.97 59.7 21.97 28.57 0 61.16-7.32 94.49-21.97 6.59-2.93 12.45-7.69 12.45-16.11V78.03c-23.07-6.96-48.7-6.22-48.7 12.09zm139.9 84.23v61.9c0 43.95 47.25 40.29 91.56 23.81V196.7c0-42.49-47.24-40.66-91.56-22.35zm-48.34-14.65c0-6.23 3.66-11.72 9.89-14.65 102.92-48.34 178.36-22.71 178.36 51.64v80.21c0 6.23-3.66 11.72-9.89 14.28-104.38 42.85-178.36 19.41-178.36-54.94V159.7z"/><path d="M1268.7 87.19c0 23.44 28.57 20.51 48.34 11.35V74.37c0-23.07-28.57-20.14-48.34-10.25v23.07z" fill="#f6c543"/><path class="st2" d="M1268.7 295.95c0 19.41 28.57 19.04 48.34 11.72V145.42c0-19.04-23.81-19.04-48.34-11.72v162.25zm-182.39-38.82v-84.24c44.32-15.02 91.56-18.68 91.56 23.81v53.47c0 25.63-49.81 29.3-91.56 6.96zm-38.46-112.08c-6.23 2.93-9.89 8.42-9.89 14.65v217.18c18.68 6.96 48.34 8.06 48.34-11.72v-64.83c63.73 27.47 139.91 4.39 139.91-53.47V196.7c.01-74.35-73.24-95.6-178.36-51.65zM672.82 307.67c21.61 8.06 48.34 8.42 48.34-11.35V177.28c43.95-13.92 87.9-22.34 87.9 19.41v110.97c20.14 7.32 48.34 9.16 48.34-11.72V178.73c44.32-15.38 88.27-24.17 88.27 18.31v110.61c21.61 7.32 48.34 7.69 48.34-11.72V193.4c0-47.25-28.93-69.59-76.91-69.59-22.71 0-50.18 5.86-80.57 17.95-27.83-26-83.5-26.74-154.19 4.03-5.86 2.56-9.52 8.06-9.52 14.28v147.6z"/></svg>